HIERARCHY
ROOT Hips
{
	OFFSET -3.958830 18.904000 13.208200
	CHANNELS 6 Xposition Yposition Zposition Zrotation Yrotation Xrotation 
	JOINT LHipJoint
	{
		OFFSET 0.000000 0.000000 0.000000
		CHANNELS 3 Zrotation Yrotation Xrotation
		JOINT LeftUpLeg
		{
			OFFSET 1.800000 -1.400000 0.085000
			CHANNELS 3 Zrotation Yrotation Xrotation
			JOINT LeftLeg
			{
				OFFSET 2.215000 -6.000000 0.000000
				CHANNELS 3 Zrotation Yrotation Xrotation
				JOINT LeftFoot
				{
					OFFSET 2.500000 -6.900000 0.000000
					CHANNELS 3 Zrotation Yrotation Xrotation
					JOINT LeftToeBase
					{
						OFFSET 0.200000 -0.500000 1.950000
						CHANNELS 3 Zrotation Yrotation Xrotation
						End Site
						{
							OFFSET 0.000000 0.000000 0.000000
						}
					}
				}
			}
		}
	}
	JOINT RHipJoint
	{
		OFFSET 0.000000 0.000000 0.000000
		CHANNELS 3 Zrotation Yrotation Xrotation
		JOINT RightUpLeg
		{
			OFFSET -1.800000 -1.400000 0.085000
			CHANNELS 3 Zrotation Yrotation Xrotation
			JOINT RightLeg
			{
				OFFSET -2.215000 -6.000000 0.000000
				CHANNELS 3 Zrotation Yrotation Xrotation
				JOINT RightFoot
				{
					OFFSET -2.500000 -6.900000 0.000000
					CHANNELS 3 Zrotation Yrotation Xrotation
					JOINT RightToeBase
					{
						OFFSET -0.200000 -0.500000 1.950000
						CHANNELS 3 Zrotation Yrotation Xrotation
						End Site
						{
							OFFSET 0.000000 0.000000 0.000000
						}
					}
				}
			}
		}
	}
	JOINT LowerBack
	{
		OFFSET 0.000000 0.000000 0.000000
		CHANNELS 3 Zrotation Yrotation Xrotation
		JOINT Spine
		{
			OFFSET -0.087000 1.940000 -0.288900
			CHANNELS 3 Zrotation Yrotation Xrotation
			JOINT Spine1
			{
				OFFSET 0.000000 1.950000 0.060000
				CHANNELS 3 Zrotation Yrotation Xrotation
				JOINT Neck
				{
					OFFSET 0.000000 0.000000 0.000000
					CHANNELS 3 Zrotation Yrotation Xrotation
					JOINT Neck1
					{
						OFFSET 0.000000 1.600000 0.340000
						CHANNELS 3 Zrotation Yrotation Xrotation
						JOINT Head
						{
							OFFSET 0.000000 1.667000 -0.240000
							CHANNELS 3 Zrotation Yrotation Xrotation
							End Site
							{
								OFFSET 0.000000 0.000000 0.000000
							}
						}
					}
				}
				JOINT LeftShoulder
				{
					OFFSET 0.000000 0.000000 0.000000
					CHANNELS 3 Zrotation Yrotation Xrotation
					JOINT LeftArm
					{
						OFFSET 2.700000 1.550000 -0.730000
						CHANNELS 3 Zrotation Yrotation Xrotation
						JOINT LeftForeArm
						{
							OFFSET 5.450000 0.000000 0.000000
							CHANNELS 3 Zrotation Yrotation Xrotation
							JOINT LeftHand
							{
								OFFSET 3.450000 0.000000 0.000000
								CHANNELS 3 Zrotation Yrotation Xrotation
								JOINT LeftHandIndex1
								{
									OFFSET 0.750000 0.000000 0.000000
									CHANNELS 3 Zrotation Yrotation Xrotation
									End Site
									{
										OFFSET 0.000000 0.000000 0.000000
									}
								}
							}
						}
					}
				}
				JOINT RightShoulder
				{
					OFFSET 0.000000 0.000000 0.000000
					CHANNELS 3 Zrotation Yrotation Xrotation
					JOINT RightArm
					{
						OFFSET -2.700000 1.550000 -0.730000
						CHANNELS 3 Zrotation Yrotation Xrotation
						JOINT RightForeArm
						{
							OFFSET -5.450000 0.000000 0.000000
							CHANNELS 3 Zrotation Yrotation Xrotation
							JOINT RightHand
							{
								OFFSET -3.450000 0.000000 0.000000
								CHANNELS 3 Zrotation Yrotation Xrotation
								JOINT RightHandIndex1
								{
									OFFSET -0.750000 0.000000 0.000000
									CHANNELS 3 Zrotation Yrotation Xrotation
									End Site
									{
										OFFSET 0.000000 0.000000 0.000000
									}
								}
							}
						}
					}
				}
			}
		}
	}
}
MOTION
Frames: 4
Frame Time: 0.016667
2.372400 16.510530 -4.337260 -8.920400 -15.261343 -6.818966 -16.261403 16.353435 4.488488 1.935827 0.872375 1.032630 -12.099216 5.730279 -0.759284 0.436042 5.114379 2.808078 -0.277130 -0.269430 0.107100 17.081496 -9.174790 1.401831 -9.012593 -7.371102 -23.364400 8.119603 -12.086390 30.810433 -0.440494 -4.489141 2.295203 -0.365720 0.099480 0.269600 -0.128181 -11.068968 -8.328999 -0.708258 -19.777438 34.777444 -3.321516 -17.988923 18.410635 13.421036 0.656077 -21.619041 -8.888533 10.738278 43.408610 -9.433690 14.710710 -10.587460 -1.664807 -21.527745 13.583109 -19.418830 -35.279369 -28.600893 113.845409 -82.628356 -77.708631 -5.903703 0.259364 0.420500 -0.049570 0.305880 -0.240760 -28.073802 14.660903 16.403356 -13.033696 -12.808875 -3.622844 -6.565552 -8.407413 0.024541 3.850211 0.354638 -0.066030 0.011520 0.263040 0.016750 
2.390130 16.500260 -4.338660 -9.033516 -15.160610 -6.438250 -16.259662 16.330778 4.473538 1.870301 0.843268 0.673228 -12.101325 5.691640 -0.917510 0.428083 5.090302 2.827046 -0.314220 -0.308670 0.088450 17.091230 -9.116557 1.465477 -8.087891 -7.079245 -24.230802 8.344176 -12.142529 31.002336 -0.430680 -4.487204 2.310396 -0.387230 0.119140 0.258340 -0.154763 -11.090258 -8.313816 0.121499 -19.943909 35.490679 -2.969603 -18.041650 17.602356 13.740523 0.417224 -21.545054 -9.124766 10.875810 42.726575 -10.474200 15.280260 -10.438170 -2.708655 -21.223676 13.797867 -19.914732 -34.614365 -28.593170 111.524504 -83.628322 -76.858648 -6.007366 0.832983 0.416350 -0.036770 0.292820 -0.245510 -27.575521 14.542826 16.357406 -12.795666 -13.173538 -3.571811 -6.541028 -8.218492 0.022627 3.823414 0.373304 -0.083790 0.028190 0.279460 0.016790 
2.423420 16.479040 -4.346750 -9.358297 -14.701519 -5.806004 -16.241731 16.260490 4.448306 2.058842 0.628620 -0.139223 -12.476782 5.689290 -0.749301 0.481385 5.052919 2.853849 -0.364390 -0.375560 0.051660 17.107050 -9.019099 1.645482 -6.663727 -6.494876 -25.765713 9.429709 -12.657512 31.693553 -0.443994 -4.668153 2.264174 -0.448740 0.141620 0.284520 -0.223113 -11.040146 -8.333280 1.926582 -20.166676 36.726992 -2.593425 -17.533553 16.055796 14.461349 0.563218 -21.834704 -8.630784 10.584011 42.130803 -11.670700 16.161910 -7.829900 -4.175204 -21.320534 14.263589 -20.156312 -33.589271 -27.275017 109.691690 -84.848304 -77.118136 -5.988553 1.200454 0.373700 -0.005380 0.272860 -0.238190 -27.269331 14.595269 16.802297 -10.212944 -14.940215 -2.918795 -6.418623 -6.243294 -0.025166 3.703662 0.363102 -0.060570 -0.022460 0.283210 0.036600 
2.461760 16.450420 -4.353330 -8.978250 -14.174835 -5.311213 -16.195947 16.113094 4.364908 1.375682 0.530688 -0.943604 -12.768765 5.729383 -0.056988 0.465717 4.945187 2.877556 -0.362850 -0.371090 0.051790 17.172694 -8.948666 1.810249 -5.469526 -5.917778 -27.700872 10.009906 -13.020457 32.772676 -0.489178 -4.855335 2.192291 -0.455900 0.129440 0.285730 -0.397038 -10.811067 -8.300956 3.153249 -20.175620 37.636796 -1.978987 -17.302098 14.241393 14.151378 0.787096 -21.469945 -7.541318 10.538806 41.647866 -11.372420 16.724700 -8.101800 -5.341543 -21.574826 13.704363 -21.027689 -30.933565 -18.565746 97.211706 -82.905148 -76.237711 -5.250531 1.936610 0.378690 -0.016400 0.282990 -0.235910 -25.295943 14.670116 16.579790 -9.450810 -15.459893 -2.833566 -7.740495 -5.210677 0.060795 3.633123 0.193496 -0.053040 -0.038730 0.272790 0.037940 
